<?xml version="1.0" encoding="utf-8"?>
<!-- Generator: Adobe Illustrator 24.0.0, SVG Export Plug-In . SVG Version: 6.00 Build 0)  -->
<svg version="1.1" id="Calque_1" xmlns="http://www.w3.org/2000/svg" xmlns:xlink="http://www.w3.org/1999/xlink" x="0px" y="0px"
	 viewBox="0 0 800 800" style="enable-background:new 0 0 800 800;" xml:space="preserve">
<style type="text/css">
	.st0{fill:#AD6A12;}
</style>
<path class="st0" d="M511.1,125H288.9c-90.5,0.1-163.8,73.4-163.9,163.9v222.3c0.1,90.5,73.4,163.8,163.9,163.9h222.3
	c90.5-0.1,163.8-73.4,163.9-163.9V288.9C674.9,198.4,601.6,125,511.1,125z M619.7,511.1c0,59.9-48.6,108.5-108.5,108.5H288.9
	c-59.9,0-108.5-48.6-108.5-108.5c0,0,0,0,0,0V288.9c0-59.9,48.6-108.5,108.5-108.5c0,0,0,0,0.1,0h222.3
	c59.9,0,108.5,48.6,108.5,108.5L619.7,511.1z"/>
<path class="st0" d="M400,257.8c-78.5,0-142.2,63.8-142.2,142.2S321.6,542.2,400,542.2S542.2,478.4,542.2,400S478.5,257.8,400,257.8
	z M400,486.9c-48,0-86.9-38.9-86.9-86.9s38.9-86.9,86.9-86.9s86.9,38.9,86.9,86.9C486.9,448,448,486.9,400,486.9z M542.5,224.8
	c18.8,0,34.1,15.3,34,34.1s-15.3,34.1-34.1,34c-18.8,0-34-15.3-34-34C508.4,240.1,521.2,224.8,542.5,224.8z"/>
</svg>
